# xmcd
#
# Track frame offsets:
#	150
#	28972
#	46035
#	63615
#	83513
#	112047
#	137399
#	162989
#	182744
#	200432
#	224058
#	240604
#	270698
#	295976
#
# Disc length: 4348 seconds
#
# Revision: 1
# Processed by: cddbd v1.5PL3 Copyright (c) Steve Scherf et al.
# Submitted via: EasyCDDAExtractor 7.0.5.1
#
DISCID=d110fa0e
DTITLE=Vargas Blues Band - Madrid - Chicago
DYEAR=1999
DGENRE=Blues
TTITLE0=Back Alley Blues
TTITLE1=Born To Be Wild
TTITLE2=Texas Tango
TTITLE3=Illegally
TTITLE4=Chill Out
TTITLE5=Amapola Negra
TTITLE6=Del Sur
TTITLE7=Manish Boy
TTITLE8=Hard Time Blues
TTITLE9=Madrid-Memphis
TTITLE10=Body Shock
TTITLE11=Blues Latino
TTITLE12=2001 Blues
TTITLE13=Buenos Aires Blues
EXTD=
EXTT0=
EXTT1=
EXTT2=
EXTT3=
EXTT4=
EXTT5=
EXTT6=
EXTT7=
EXTT8=
EXTT9=
EXTT10=
EXTT11=
EXTT12=
EXTT13=
PLAYORDER=
